<svg width="24" height="24" viewBox="0 0 24 24" fill="none" xmlns="http://www.w3.org/2000/svg">
<path fill-rule="evenodd" clip-rule="evenodd" d="M4.68293 1.5C3.97137 1.5 3.28896 1.78266 2.78581 2.28581C2.28266 2.78896 2 3.47137 2 4.18293C2 4.89448 2.28266 5.5769 2.78581 6.08004C3.28896 6.58319 3.97137 6.86585 4.68293 6.86585C5.39448 6.86585 6.0769 6.58319 6.58004 6.08004C7.08319 5.5769 7.36585 4.89448 7.36585 4.18293C7.36585 3.47137 7.08319 2.78896 6.58004 2.28581C6.0769 1.78266 5.39448 1.5 4.68293 1.5ZM3.46341 4.18293C3.46341 3.85949 3.5919 3.5493 3.8206 3.3206C4.0493 3.0919 4.35949 2.96341 4.68293 2.96341C5.00636 2.96341 5.31655 3.0919 5.54525 3.3206C5.77396 3.5493 5.90244 3.85949 5.90244 4.18293C5.90244 4.50636 5.77396 4.81655 5.54525 5.04525C5.31655 5.27396 5.00636 5.40244 4.68293 5.40244C4.35949 5.40244 4.0493 5.27396 3.8206 5.04525C3.5919 4.81655 3.46341 4.50636 3.46341 4.18293ZM2 8.08537C2 7.89131 2.07709 7.70519 2.21431 7.56797C2.35153 7.43075 2.53765 7.35366 2.73171 7.35366H6.63415C6.82821 7.35366 7.01432 7.43075 7.15154 7.56797C7.28876 7.70519 7.36585 7.89131 7.36585 8.08537V20.7683C7.36585 20.9624 7.28876 21.1485 7.15154 21.2857C7.01432 21.4229 6.82821 21.5 6.63415 21.5H2.73171C2.53765 21.5 2.35153 21.4229 2.21431 21.2857C2.07709 21.1485 2 20.9624 2 20.7683V8.08537ZM3.46341 8.81707V20.0366H5.90244V8.81707H3.46341ZM8.82927 8.08537C8.82927 7.89131 8.90636 7.70519 9.04358 7.56797C9.1808 7.43075 9.36691 7.35366 9.56098 7.35366H13.4634C13.6575 7.35366 13.8436 7.43075 13.9808 7.56797C14.118 7.70519 14.1951 7.89131 14.1951 8.08537V8.50878L14.6195 8.32634C15.3512 8.01364 16.1275 7.81775 16.92 7.74585C19.6273 7.5 22 9.62683 22 12.3585V20.7683C22 20.9624 21.9229 21.1485 21.7857 21.2857C21.6485 21.4229 21.4624 21.5 21.2683 21.5H17.3659C17.1718 21.5 16.9857 21.4229 16.8485 21.2857C16.7112 21.1485 16.6341 20.9624 16.6341 20.7683V13.939C16.6341 13.6156 16.5057 13.3054 16.277 13.0767C16.0483 12.848 15.7381 12.7195 15.4146 12.7195C15.0912 12.7195 14.781 12.848 14.5523 13.0767C14.3236 13.3054 14.1951 13.6156 14.1951 13.939V20.7683C14.1951 20.9624 14.118 21.1485 13.9808 21.2857C13.8436 21.4229 13.6575 21.5 13.4634 21.5H9.56098C9.36691 21.5 9.1808 21.4229 9.04358 21.2857C8.90636 21.1485 8.82927 20.9624 8.82927 20.7683V8.08537ZM10.2927 8.81707V20.0366H12.7317V13.939C12.7317 13.2275 13.0144 12.5451 13.5175 12.0419C14.0207 11.5388 14.7031 11.2561 15.4146 11.2561C16.1262 11.2561 16.8086 11.5388 17.3118 12.0419C17.8149 12.5451 18.0976 13.2275 18.0976 13.939V20.0366H20.5366V12.3585C20.5366 10.501 18.9161 9.03366 17.0537 9.20341C16.4138 9.26163 15.7871 9.41964 15.1961 9.67171L13.7522 10.2912C13.6408 10.3391 13.5193 10.3585 13.3986 10.3477C13.2779 10.337 13.1617 10.2964 13.0605 10.2297C12.9593 10.163 12.8763 10.0721 12.8189 9.96536C12.7615 9.8586 12.7316 9.73926 12.7317 9.61805V8.81707H10.2927Z" fill="#EDEDED"/>
</svg>
