<svg width="24" height="24" viewBox="0 0 24 24" fill="none" xmlns="http://www.w3.org/2000/svg">
<path d="M5.21429 3.5C4.3618 3.5 3.54424 3.86635 2.94144 4.51847C2.33865 5.17058 2 6.05504 2 6.97727V17.0227C2 17.945 2.33865 18.8294 2.94144 19.4815C3.54424 20.1336 4.3618 20.5 5.21429 20.5H18.7857C19.6382 20.5 20.4558 20.1336 21.0586 19.4815C21.6614 18.8294 22 17.945 22 17.0227V6.97727C22 6.05504 21.6614 5.17058 21.0586 4.51847C20.4558 3.86635 19.6382 3.5 18.7857 3.5H5.21429ZM20.5714 7.67505L12 12.6676L3.42857 7.67505V6.97727C3.42857 6.46492 3.61671 5.97356 3.9516 5.61127C4.28648 5.24898 4.74068 5.04545 5.21429 5.04545H18.7857C19.2593 5.04545 19.7135 5.24898 20.0484 5.61127C20.3833 5.97356 20.5714 6.46492 20.5714 6.97727V7.67505ZM3.42857 9.42991L11.6614 14.2262C11.7655 14.2868 11.8818 14.3185 12 14.3185C12.1182 14.3185 12.2345 14.2868 12.3386 14.2262L20.5714 9.42991V17.0227C20.5714 17.5351 20.3833 18.0264 20.0484 18.3887C19.7135 18.751 19.2593 18.9545 18.7857 18.9545H5.21429C4.74068 18.9545 4.28648 18.751 3.9516 18.3887C3.61671 18.0264 3.42857 17.5351 3.42857 17.0227V9.42991Z" fill="#EDEDED"/>
</svg>
